# xmcd
# 
# Track frame offsets:
#     150
#     17529
#     33159
#     51320
#     68807
#     86033
#     103556
#     117779
#     136106
#     154886
#     169616
#     191228
#     207722
#     227048
#     243635
# 
# Disc length: 3461
# 
# Revision: 3
# Processed by: cddbd v1.5.2PL0 Copyright (c) Steve Scherf et al.
# Submitted via: fre:ac v1.0.17
# 
DISCID=cc0d830f
DTITLE=Various Artist - Country Karaoke - Fall 2004
DYEAR=2004
DGENRE=Country
TTITLE0=Various Artist - Save A Horse, Ride A Cowboy−Big and Rich
TTITLE1=Various Artist - Here For The Pary−Gretchen Wilson
TTITLE2=Various Artist - I Go Back−Kenny Chesney
TTITLE3=Various Artist - Days Go By−Keith Urban
TTITLE4=Various Artist - I Want To Live−Josh Gracin
TTITLE5=Various Artist - Somebody−Reba McEntire
TTITLE6=Various Artist - Men Don't Change−Amy Dalley
TTITLE7=Various Artist - Suds In The Bucket−Sara Evans
TTITLE8=Various Artist - I Hate Everything−George Strait
TTITLE9=Various Artist - Too Much Of A Good Thing−Alan Jackson
TTITLE10=Various Artist - Live Like You Were Dying−Tim McGraw
TTITLE11=Various Artist - That's What It's All About−Brooks and Dunn
TTITLE12=Various Artist - Break Down Here−Julie Roberts
TTITLE13=Various Artist - You Do Your Thing−Montgomery Gentry
TTITLE14=Various Artist - Feels Like Today−Rascal Flatts
EXTD=
EXTT0=
EXTT1=
EXTT2=
EXTT3=
EXTT4=
EXTT5=
EXTT6=
EXTT7=
EXTT8=
EXTT9=
EXTT10=
EXTT11=
EXTT12=
EXTT13=
EXTT14=
PLAYORDER=
